<?xml version="1.0" encoding="UTF-8" standalone="no"?>
<svg
   xmlns:dc="http://purl.org/dc/elements/1.1/"
   xmlns:cc="http://creativecommons.org/ns#"
   xmlns:rdf="http://www.w3.org/1999/02/22-rdf-syntax-ns#"
   xmlns:svg="http://www.w3.org/2000/svg"
   xmlns="http://www.w3.org/2000/svg"
   xmlns:sodipodi="http://sodipodi.sourceforge.net/DTD/sodipodi-0.dtd"
   xmlns:inkscape="http://www.inkscape.org/namespaces/inkscape"
   version="1.1"
   viewBox="0 0 286.439 286.439"
   enable-background="new 0 0 286.439 286.439"
   id="svg1438"
   sodipodi:docname="analysis.svg"
   inkscape:version="1.0.1 (c497b03c, 2020-09-10)">
  <metadata
     id="metadata1444">
    <rdf:RDF>
      <cc:Work
         rdf:about="">
        <dc:format>image/svg+xml</dc:format>
        <dc:type
           rdf:resource="http://purl.org/dc/dcmitype/StillImage" />
      </cc:Work>
    </rdf:RDF>
  </metadata>
  <defs
     id="defs1442" />
  <sodipodi:namedview
     pagecolor="#ffffff"
     bordercolor="#666666"
     borderopacity="1"
     objecttolerance="10"
     gridtolerance="10"
     guidetolerance="10"
     inkscape:pageopacity="0"
     inkscape:pageshadow="2"
     inkscape:window-width="1117"
     inkscape:window-height="654"
     id="namedview1440"
     showgrid="false"
     inkscape:zoom="1.8119041"
     inkscape:cx="143.2195"
     inkscape:cy="143.2195"
     inkscape:window-x="0"
     inkscape:window-y="23"
     inkscape:window-maximized="0"
     inkscape:current-layer="g1436" />
  <g
     id="g1436">
    <path
       d="m45.422,135.326c-3.313,0-6,2.687-6,6v22.064c0,3.313 2.687,6 6,6s6-2.687 6-6v-22.064c0-3.314-2.687-6-6-6z"
       id="path1424"
       style="fill:#333333;fill-opacity:1" />
    <path
       d="m69.883,120.619c-3.313,0-6,2.687-6,6v36.771c0,3.313 2.687,6 6,6s6-2.687 6-6v-36.771c0-3.313-2.687-6-6-6z"
       id="path1426"
       style="fill:#333333;fill-opacity:1" />
    <path
       d="m94.344,98.817c-3.313,0-6,2.687-6,6v58.573c0,3.313 2.687,6 6,6s6-2.687 6-6v-58.573c0-3.314-2.687-6-6-6z"
       id="path1428"
       style="fill:#333333;fill-opacity:1" />
    <path
       d="m118.805,83.849c-3.313,0-6,2.687-6,6v73.542c0,3.313 2.687,6 6,6s6-2.687 6-6v-73.542c0-3.314-2.687-6-6-6z"
       id="path1430"
       style="fill:#333333;fill-opacity:1" />
    <path
       d="m281.728,196.948l-43.009-43.009c4.473-10.953 4.097-23.43-1.11-34.131v-47.09c0-8.808-7.166-15.974-15.974-15.974h-205.661c-8.808-0.001-15.974,7.165-15.974,15.973v114.683c0,8.808 7.166,15.974 15.974,15.974h65.068v14.322h-17.278c-3.313,0-6,2.686-6,6s2.687,6 6,6h110.081c3.313,0 6-2.686 6-6s-2.687-6-6-6h-17.278v-14.322h65.068c5.674,0 10.653-2.982 13.487-7.453l23.816,23.816c3.142,3.142 7.268,4.712 11.395,4.712s8.253-1.571 11.395-4.712h0.001c6.281-6.283 6.281-16.507-0.001-22.789zm-8.486,14.304c-1.604,1.604-4.214,1.604-5.819,0l-40.719-40.719 5.819-5.819 40.719,40.719c1.605,1.604 1.605,4.214 0,5.819zm-51.607-19.878h-205.661c-2.191,0-3.974-1.783-3.974-3.974v-114.683c0-2.191 1.782-3.974 3.974-3.974h205.661c2.191,0 3.974,1.783 3.974,3.974v32.357c-16.362-12.656-40.032-11.492-55.035,3.51-16.276,16.278-16.276,42.763 0,59.04 7.886,7.885 18.369,12.228 29.521,12.228 5.526,0 10.888-1.07 15.852-3.106l9.663,9.662v0.993c-0.002,2.19-1.784,3.973-3.975,3.973zm-128.593,26.322v-14.322h51.524v14.322h-51.524zm128.087-58.558c-5.619,5.619-13.09,8.713-21.035,8.713-7.946,0-15.416-3.094-21.035-8.713-11.598-11.598-11.598-30.47 0-42.069 5.8-5.799 13.417-8.699 21.035-8.699 7.617,0 15.235,2.9 21.034,8.699 11.599,11.598 11.599,30.47 0.001,42.069z"
       id="path1432"
       style="fill:#333333;fill-opacity:1" />
    <path
       d="m199.306,151.167c-7.204-0.435-12.711-6.648-12.276-13.852 0.199-3.308-2.32-6.151-5.628-6.351-3.309-0.197-6.151,2.32-6.351,5.628-0.833,13.809 9.724,25.72 23.532,26.553 0.123,0.007 0.245,0.011 0.367,0.011 3.148,0 5.791-2.454 5.983-5.639 0.2-3.307-2.32-6.15-5.627-6.35z"
       id="path1434"
       style="fill:#333333;fill-opacity:1" />
  </g>
</svg>
