<?xml version="1.0" encoding="UTF-8" standalone="no"?>
<svg
   xmlns:dc="http://purl.org/dc/elements/1.1/"
   xmlns:cc="http://creativecommons.org/ns#"
   xmlns:rdf="http://www.w3.org/1999/02/22-rdf-syntax-ns#"
   xmlns:svg="http://www.w3.org/2000/svg"
   xmlns="http://www.w3.org/2000/svg"
   xmlns:sodipodi="http://sodipodi.sourceforge.net/DTD/sodipodi-0.dtd"
   xmlns:inkscape="http://www.inkscape.org/namespaces/inkscape"
   version="1.1"
   viewBox="0 0 286.439 286.439"
   enable-background="new 0 0 286.439 286.439"
   id="svg1438"
   sodipodi:docname="analysis.svg"
   inkscape:version="1.0.1 (1.0.1+r75)">
  <metadata
     id="metadata1444">
    <rdf:RDF>
      <cc:Work
         rdf:about="">
        <dc:format>image/svg+xml</dc:format>
        <dc:type
           rdf:resource="http://purl.org/dc/dcmitype/StillImage" />
      </cc:Work>
    </rdf:RDF>
  </metadata>
  <defs
     id="defs1442" />
  <sodipodi:namedview
     pagecolor="#ffffff"
     bordercolor="#666666"
     borderopacity="1"
     objecttolerance="10"
     gridtolerance="10"
     guidetolerance="10"
     inkscape:pageopacity="0"
     inkscape:pageshadow="2"
     inkscape:window-width="1654"
     inkscape:window-height="1056"
     id="namedview1440"
     showgrid="false"
     inkscape:zoom="1.8119041"
     inkscape:cx="36.977674"
     inkscape:cy="143.2195"
     inkscape:window-x="72"
     inkscape:window-y="27"
     inkscape:window-maximized="0"
     inkscape:current-layer="layer2"
     inkscape:document-rotation="0" />
  <rect
     style="fill:#ffffff;fill-opacity:1;stroke:none;stroke-width:4;stroke-miterlimit:10;stroke-opacity:1"
     id="rect2112"
     width="2.2550519"
     height="7.0535498"
     x="9.3799696"
     y="188.86746" />
  <g
     inkscape:groupmode="layer"
     id="layer2"
     inkscape:label="Layer 2"
     style="display:inline">
    <rect
       style="fill:#ffffff;fill-opacity:1;stroke:#333333;stroke-width:13.6537;stroke-linejoin:round;stroke-miterlimit:10;stroke-dasharray:none;stroke-opacity:1"
       id="rect2114"
       width="225.74207"
       height="131.93321"
       x="9.3799686"
       y="61.987766"
       rx="16.615896" />
    <rect
       style="fill:none;fill-opacity:1;stroke:#333333;stroke-width:12;stroke-miterlimit:10;stroke-dasharray:none;stroke-opacity:1"
       id="rect2151"
       width="67.158524"
       height="29.817322"
       x="84.777603"
       y="195.49463" />
    <rect
       style="fill:#333333;fill-opacity:1;stroke:#333330;stroke-width:9.17371;stroke-miterlimit:8;stroke-dasharray:none;stroke-opacity:1"
       id="rect2153"
       width="112.17659"
       height="6.9399056"
       x="61.936916"
       y="223.31184"
       ry="2.1670372"
       rx="8" />
    <ellipse
       style="fill:#ffffff;fill-opacity:1;stroke:#333330;stroke-width:12;stroke-linejoin:round;stroke-miterlimit:8;stroke-dasharray:none;stroke-opacity:1"
       id="path2155"
       cx="199.54431"
       cy="137.56073"
       rx="35.231087"
       ry="35.245659" />
    <rect
       style="fill:#ffffff;fill-opacity:1;stroke:#333330;stroke-width:11.8163;stroke-linejoin:round;stroke-miterlimit:8;stroke-dasharray:none;stroke-opacity:1"
       id="rect2157"
       width="73.695328"
       height="17.684954"
       x="273.68399"
       y="-42.410717"
       ry="5.2494326"
       rx="5.0221248"
       transform="matrix(0.72989177,0.68356273,-0.71402431,0.70012091,0,0)" />
    <path
       d="m 45.422,135.326 c -3.313,0 -6,2.687 -6,6 v 22.064 c 0,3.313 2.687,6 6,6 3.313,0 6,-2.687 6,-6 v -22.064 c 0,-3.314 -2.687,-6 -6,-6 z"
       id="path1424-6"
       style="fill:#333333;fill-opacity:1" />
    <path
       d="m 69.883,120.619 c -3.313,0 -6,2.687 -6,6 v 36.771 c 0,3.313 2.687,6 6,6 3.313,0 6,-2.687 6,-6 v -36.771 c 0,-3.313 -2.687,-6 -6,-6 z"
       id="path1426-7"
       style="fill:#333333;fill-opacity:1" />
    <path
       d="m 94.344,98.817 c -3.313,0 -6,2.687 -6,6 v 58.573 c 0,3.313 2.687,6 6,6 3.313,0 6,-2.687 6,-6 v -58.573 c 0,-3.314 -2.687,-6 -6,-6 z"
       id="path1428-5"
       style="fill:#333333;fill-opacity:1" />
    <path
       d="m 118.805,83.849 c -3.313,0 -6,2.687 -6,6 v 73.542 c 0,3.313 2.687,6 6,6 3.313,0 6,-2.687 6,-6 V 89.849 c 0,-3.314 -2.687,-6 -6,-6 z"
       id="path1430-3"
       style="fill:#333333;fill-opacity:1" />
    <path
       d="m 199.306,151.167 c -7.204,-0.435 -12.711,-6.648 -12.276,-13.852 0.199,-3.308 -2.32,-6.151 -5.628,-6.351 -3.309,-0.197 -6.151,2.32 -6.351,5.628 -0.833,13.809 9.724,25.72 23.532,26.553 0.123,0.007 0.245,0.011 0.367,0.011 3.148,0 5.791,-2.454 5.983,-5.639 0.2,-3.307 -2.32,-6.15 -5.627,-6.35 z"
       id="path1434-5"
       style="fill:#333333;fill-opacity:1" />
  </g>
  <g
     inkscape:groupmode="layer"
     id="layer1"
     inkscape:label="Layer 1"
     style="display:none">
    <path
       d="m 281.728,196.948 -43.009,-43.009 c 4.473,-10.953 4.097,-23.43 -1.11,-34.131 v -47.09 c 0,-8.808 -7.166,-15.974 -15.974,-15.974 H 15.974 C 7.166,56.743 0,63.909 0,72.717 V 187.4 c 0,8.808 7.166,15.974 15.974,15.974 h 65.068 v 14.322 H 63.764 c -3.313,0 -6,2.686 -6,6 0,3.314 2.687,6 6,6 h 110.081 c 3.313,0 6,-2.686 6,-6 0,-3.314 -2.687,-6 -6,-6 h -17.278 v -14.322 h 65.068 c 5.674,0 10.653,-2.982 13.487,-7.453 l 23.816,23.816 c 3.142,3.142 7.268,4.712 11.395,4.712 4.127,0 8.253,-1.571 11.395,-4.712 h 10e-4 c 6.281,-6.283 6.281,-16.507 -10e-4,-22.789 z m -8.486,14.304 c -1.604,1.604 -4.214,1.604 -5.819,0 l -40.719,-40.719 5.819,-5.819 40.719,40.719 c 1.605,1.604 1.605,4.214 0,5.819 z M 221.635,191.374 H 15.974 C 13.783,191.374 12,189.591 12,187.4 V 72.717 c 0,-2.191 1.782,-3.974 3.974,-3.974 h 205.661 c 2.191,0 3.974,1.783 3.974,3.974 v 32.357 c -16.362,-12.656 -40.032,-11.492 -55.035,3.51 -16.276,16.278 -16.276,42.763 0,59.04 7.886,7.885 18.369,12.228 29.521,12.228 5.526,0 10.888,-1.07 15.852,-3.106 l 9.663,9.662 v 0.993 c -0.002,2.19 -1.784,3.973 -3.975,3.973 z M 93.042,217.696 v -14.322 h 51.524 v 14.322 z m 128.087,-58.558 c -5.619,5.619 -13.09,8.713 -21.035,8.713 -7.946,0 -15.416,-3.094 -21.035,-8.713 -11.598,-11.598 -11.598,-30.47 0,-42.069 5.8,-5.799 13.417,-8.699 21.035,-8.699 7.617,0 15.235,2.9 21.034,8.699 11.599,11.598 11.599,30.47 0.001,42.069 z"
       id="path1432"
       style="fill:#333333;fill-opacity:1" />
  </g>
</svg>
