<?xml version="1.0" encoding="UTF-8" standalone="no"?>
<svg
   xmlns:dc="http://purl.org/dc/elements/1.1/"
   xmlns:cc="http://creativecommons.org/ns#"
   xmlns:rdf="http://www.w3.org/1999/02/22-rdf-syntax-ns#"
   xmlns:svg="http://www.w3.org/2000/svg"
   xmlns="http://www.w3.org/2000/svg"
   xmlns:sodipodi="http://sodipodi.sourceforge.net/DTD/sodipodi-0.dtd"
   xmlns:inkscape="http://www.inkscape.org/namespaces/inkscape"
   version="1.1"
   id="Layer_1"
   x="0px"
   y="0px"
   viewBox="0 0 295.24 295.24"
   style="enable-background:new 0 0 295.24 295.24;"
   xml:space="preserve"
   sodipodi:docname="calculation.svg"
   inkscape:version="1.0.1 (1.0.1+r75)"><metadata
   id="metadata2338"><rdf:RDF><cc:Work
       rdf:about=""><dc:format>image/svg+xml</dc:format><dc:type
         rdf:resource="http://purl.org/dc/dcmitype/StillImage" /></cc:Work></rdf:RDF></metadata><defs
   id="defs2336" /><sodipodi:namedview
   pagecolor="#ffffff"
   bordercolor="#666666"
   borderopacity="1"
   objecttolerance="10"
   gridtolerance="10"
   guidetolerance="10"
   inkscape:pageopacity="0"
   inkscape:pageshadow="2"
   inkscape:window-width="1662"
   inkscape:window-height="1032"
   id="namedview2334"
   showgrid="false"
   inkscape:zoom="3.4141716"
   inkscape:cx="91.237358"
   inkscape:cy="194.48349"
   inkscape:window-x="72"
   inkscape:window-y="27"
   inkscape:window-maximized="0"
   inkscape:current-layer="Layer_1" />
<g
   id="g2301">
	<g
   id="g2299">
		<path
   style="fill:#333333;"
   d="M295.239,161.905h-38.095v-42.824l-75.229-0.505l-29.533-12.233V90.476h-9.524v15.867    l-29.533,12.233l-75.229,0.505v42.824H0.001v57.143h85.714v-57.143H47.62v-33.367l65.676-0.438l29.562,13.095v20.71h-38.095    v57.143h85.714v-57.143h-38.095v-20.71l29.562-13.095l65.676,0.438v33.367h-38.095v57.143h38.095v14.286H142.858v23.81h-19.047    c-10.505,0-19.048,8.543-19.048,19.048s8.543,19.048,19.048,19.048h47.619c10.505,0,19.048-8.543,19.048-19.048    s-8.543-19.048-19.048-19.048h-19.048v-14.286h104.762v-23.81h38.095V161.905z M76.191,209.524H9.525v-38.095h66.666V209.524z     M180.953,209.524h-66.667v-38.095h66.667V209.524z M147.62,132.886l-21.243-9.41l21.243-8.795l21.243,8.8L147.62,132.886z     M180.953,276.19c0,5.252-4.271,9.524-9.524,9.524h-47.618c-5.252,0-9.524-4.271-9.524-9.524c0-5.252,4.271-9.524,9.524-9.524    h47.619C176.682,266.667,180.953,270.938,180.953,276.19z M285.715,209.524h-66.667v-38.095h66.667V209.524z"
   id="path2281" />
		<path
   style="fill:#F9BA48;"
   d="M171.43,95.238h-47.619V67.81c-8.99-7.219-14.286-18.143-14.286-29.714    C109.525,17.09,126.615,0,147.62,0s38.095,17.09,38.095,38.095c0,11.576-5.295,22.5-14.286,29.714L171.43,95.238L171.43,95.238z"
   id="path2283" />
		<path
   style="fill:#333333;"
   d="M176.191,71.429h-23.81V51.505c5.529-1.971,9.524-7.21,9.524-13.41    c0-7.876-6.41-14.286-14.286-14.286s-14.286,6.41-14.286,14.286c0,6.2,3.995,11.438,9.524,13.41v19.924h-23.81v9.524h57.143    L176.191,71.429L176.191,71.429z M147.62,33.333c2.624,0,4.762,2.138,4.762,4.762s-2.138,4.762-4.762,4.762    s-4.762-2.138-4.762-4.762C142.858,35.471,144.996,33.333,147.62,33.333z"
   id="path2285" />
		<rect
   x="71.43"
   y="33.333"
   style="fill:#333333;"
   width="23.81"
   height="9.524"
   id="rect2287" />
		
			<rect
   x="76.32"
   y="57.934"
   transform="matrix(0.9238 -0.3828 0.3828 0.9238 -17.2805 38.549)"
   style="fill:#333333;"
   width="23.808"
   height="9.524"
   id="rect2289" />
		
			<rect
   x="202.248"
   y="50.792"
   transform="matrix(0.3827 -0.9239 0.9239 0.3827 69.8651 229.9553)"
   style="fill:#333333;"
   width="9.524"
   height="23.811"
   id="rect2291" />
		<rect
   x="200.001"
   y="33.333"
   style="fill:#333333;"
   width="23.81"
   height="9.524"
   id="rect2293" />
		
			<rect
   x="195.106"
   y="8.734"
   transform="matrix(0.9238 -0.3828 0.3828 0.9238 10.6022 80.274)"
   style="fill:#333333;"
   width="23.808"
   height="9.524"
   id="rect2295" />
		
			<rect
   x="83.467"
   y="1.587"
   transform="matrix(0.3827 -0.9239 0.9239 0.3827 41.9993 89.8422)"
   style="fill:#333333;"
   width="9.524"
   height="23.811"
   id="rect2297" />
	<path
   style="fill:#ffffff;fill-opacity:1;stroke:#333330;stroke-width:0;stroke-linejoin:round;stroke-miterlimit:10;stroke-dasharray:none"
   d="m 137.80795,128.4234 c -5.15498,-2.31098 -9.74184,-4.3758 -10.19301,-4.5885 -0.79101,-0.3729 -0.44796,-0.54061 9.60301,-4.69478 l 10.42333,-4.30807 10.31397,4.27234 c 5.67268,2.34979 10.34922,4.30346 10.3923,4.34149 0.12846,0.11341 -20.5617,9.23886 -20.87693,9.20784 -0.15949,-0.0157 -4.50768,-1.91934 -9.66267,-4.23032 z"
   id="path2939" /><path
   style="fill:#ffffff;fill-opacity:1;stroke:#333330;stroke-width:0;stroke-linejoin:round;stroke-miterlimit:10;stroke-dasharray:none"
   d="m 120.73352,285.02281 c -1.92877,-0.67022 -3.43947,-1.85778 -4.66918,-3.67043 -1.24749,-1.83888 -1.63542,-3.38713 -1.474,-5.88292 0.2195,-3.39387 2.08428,-6.17065 5.15743,-7.67982 l 1.65796,-0.81419 H 147.62 173.83426 l 1.65795,0.81419 c 1.82133,0.89441 3.37263,2.43352 4.40616,4.37153 0.5639,1.05738 0.6709,1.70177 0.6709,4.04053 0,2.33876 -0.107,2.98315 -0.6709,4.04053 -1.03353,1.93801 -2.58483,3.47711 -4.40616,4.37153 l -1.65795,0.81419 -25.77492,0.0669 c -24.3693,0.0632 -25.8595,0.0375 -27.32582,-0.47203 z"
   id="path2941" /></g>
</g>
<g
   id="g2303">
</g>
<g
   id="g2305">
</g>
<g
   id="g2307">
</g>
<g
   id="g2309">
</g>
<g
   id="g2311">
</g>
<g
   id="g2313">
</g>
<g
   id="g2315">
</g>
<g
   id="g2317">
</g>
<g
   id="g2319">
</g>
<g
   id="g2321">
</g>
<g
   id="g2323">
</g>
<g
   id="g2325">
</g>
<g
   id="g2327">
</g>
<g
   id="g2329">
</g>
<g
   id="g2331">
</g>
<path
   style="fill:#ffffff;fill-opacity:1;stroke:#333330;stroke-width:0;stroke-linejoin:round;stroke-miterlimit:10;stroke-dasharray:none"
   d="M 9.6655949,190.52938 V 171.63753 H 42.909384 76.153172 v 18.89185 18.89184 H 42.909384 9.6655949 Z"
   id="path2943" /><path
   style="fill:#ffffff;fill-opacity:1;stroke:#333330;stroke-width:0;stroke-linejoin:round;stroke-miterlimit:10;stroke-dasharray:none"
   d="M 114.52265,190.52938 V 171.63753 H 147.62 180.71734 v 18.89185 18.89184 H 147.62 114.52265 Z"
   id="path2945" /><path
   style="fill:#ffffff;fill-opacity:1;stroke:#333330;stroke-width:0;stroke-linejoin:round;stroke-miterlimit:10;stroke-dasharray:none"
   d="m 219.08682,190.52938 v -18.89185 h 33.24379 33.24379 v 18.89185 18.89184 h -33.24379 -33.24379 z"
   id="path2947" /></svg>
