<?xml version="1.0" encoding="UTF-8" standalone="no"?>
<svg
   xmlns:dc="http://purl.org/dc/elements/1.1/"
   xmlns:cc="http://creativecommons.org/ns#"
   xmlns:rdf="http://www.w3.org/1999/02/22-rdf-syntax-ns#"
   xmlns:svg="http://www.w3.org/2000/svg"
   xmlns="http://www.w3.org/2000/svg"
   xmlns:sodipodi="http://sodipodi.sourceforge.net/DTD/sodipodi-0.dtd"
   xmlns:inkscape="http://www.inkscape.org/namespaces/inkscape"
   viewBox="0 0 96 96"
   fill="#FFF"
   stroke-miterlimit="10"
   stroke-width="2"
   version="1.1"
   id="svg12"
   sodipodi:docname="xlsx_icon.svg"
   inkscape:version="1.0.1 (1.0.1+r75)">
  <metadata
     id="metadata18">
    <rdf:RDF>
      <cc:Work
         rdf:about="">
        <dc:format>image/svg+xml</dc:format>
        <dc:type
           rdf:resource="http://purl.org/dc/dcmitype/StillImage" />
      </cc:Work>
    </rdf:RDF>
  </metadata>
  <defs
     id="defs16" />
  <sodipodi:namedview
     pagecolor="#ffffff"
     bordercolor="#666666"
     borderopacity="1"
     objecttolerance="10"
     gridtolerance="10"
     guidetolerance="10"
     inkscape:pageopacity="0"
     inkscape:pageshadow="2"
     inkscape:window-width="1747"
     inkscape:window-height="1195"
     id="namedview14"
     showgrid="false"
     inkscape:zoom="5.25"
     inkscape:cx="4.1020413"
     inkscape:cy="35.915048"
     inkscape:window-x="72"
     inkscape:window-y="27"
     inkscape:window-maximized="0"
     inkscape:current-layer="svg12"
     inkscape:document-rotation="0" />
  <path
     stroke="#979593"
     d="M67.1716,7H27c-1.1046,0-2,0.8954-2,2v78 c0,1.1046,0.8954,2,2,2h58c1.1046,0,2-0.8954,2-2V26.8284c0-0.5304-0.2107-1.0391-0.5858-1.4142L68.5858,7.5858 C68.2107,7.2107,67.702,7,67.1716,7z"
     id="path2"
     style="stroke:#333333;stroke-opacity:1;opacity:1;stroke-width:4;stroke-miterlimit:10;stroke-dasharray:none;fill:#ffffff;fill-opacity:1" />
  <path
     fill="none"
     stroke="#979593"
     d="M67,7v18c0,1.1046,0.8954,2,2,2h18"
     id="path4"
     style="stroke:#333333;stroke-opacity:1;stroke-width:4;stroke-miterlimit:10;stroke-dasharray:none" />
  <path
     fill="#C8C6C4"
     d="m 51,61 h -4 v -2 h 4 c 0.5523,0 1,0.4477 1,1 v 0 c 0,0.5523 -0.4477,1 -1,1 z m 0,-6 h -4 v -2 h 4 c 0.5523,0 1,0.4477 1,1 v 0 c 0,0.5523 -0.4477,1 -1,1 z m 0,-6 h -4 v -2 h 4 c 0.5523,0 1,0.4477 1,1 v 0 c 0,0.5523 -0.4477,1 -1,1 z m 0,-6 h -4 v -2 h 4 c 0.5523,0 1,0.4477 1,1 v 0 c 0,0.5523 -0.4477,1 -1,1 z m 0,24 h -4 v -2 h 4 c 0.5523,0 1,0.4477 1,1 v 0 c 0,0.5523 -0.4477,1 -1,1 z M 79,61 H 69 c -0.5523,0 -1,-0.4477 -1,-1 v 0 c 0,-0.5523 0.4477,-1 1,-1 h 10 c 0.5523,0 1,0.4477 1,1 v 0 c 0,0.5523 -0.4477,1 -1,1 z m 0,6 H 69 c -0.5523,0 -1,-0.4477 -1,-1 v 0 c 0,-0.5523 0.4477,-1 1,-1 h 10 c 0.5523,0 1,0.4477 1,1 v 0 c 0,0.5523 -0.4477,1 -1,1 z M 79,55 H 69 c -0.5523,0 -1,-0.4477 -1,-1 v 0 c 0,-0.5523 0.4477,-1 1,-1 h 10 c 0.5523,0 1,0.4477 1,1 v 0 c 0,0.5523 -0.4477,1 -1,1 z m 0,-6 H 69 c -0.5523,0 -1,-0.4477 -1,-1 v 0 c 0,-0.5523 0.4477,-1 1,-1 h 10 c 0.5523,0 1,0.4477 1,1 v 0 c 0,0.5523 -0.4477,1 -1,1 z m 0,-6 H 69 c -0.5523,0 -1,-0.4477 -1,-1 v 0 c 0,-0.5523 0.4477,-1 1,-1 h 10 c 0.5523,0 1,0.4477 1,1 v 0 c 0,0.5523 -0.4477,1 -1,1 z M 65,61 H 55 c -0.5523,0 -1,-0.4477 -1,-1 v 0 c 0,-0.5523 0.4477,-1 1,-1 h 10 c 0.5523,0 1,0.4477 1,1 v 0 c 0,0.5523 -0.4477,1 -1,1 z m 0,6 H 55 c -0.5523,0 -1,-0.4477 -1,-1 v 0 c 0,-0.5523 0.4477,-1 1,-1 h 10 c 0.5523,0 1,0.4477 1,1 v 0 c 0,0.5523 -0.4477,1 -1,1 z M 65,55 H 55 c -0.5523,0 -1,-0.4477 -1,-1 v 0 c 0,-0.5523 0.4477,-1 1,-1 h 10 c 0.5523,0 1,0.4477 1,1 v 0 c 0,0.5523 -0.4477,1 -1,1 z m 0,-6 H 55 c -0.5523,0 -1,-0.4477 -1,-1 v 0 c 0,-0.5523 0.4477,-1 1,-1 h 10 c 0.5523,0 1,0.4477 1,1 v 0 c 0,0.5523 -0.4477,1 -1,1 z m 0,-6 H 55 c -0.5523,0 -1,-0.4477 -1,-1 v 0 c 0,-0.5523 0.4477,-1 1,-1 h 10 c 0.5523,0 1,0.4477 1,1 v 0 c 0,0.5523 -0.4477,1 -1,1 z"
     id="path6"
     style="opacity:1;fill:#333333;fill-opacity:1;stroke-width:4;stroke-miterlimit:10;stroke-dasharray:none"
     sodipodi:nodetypes="sccsssssccsssssccsssssccsssssccssssssssssssssssssssssssssssssssssssssssssssssssssssssssssssssssssssssssssssssssssssssssssssss" />
  <path
     fill="#107C41"
     d="M12,74h32c2.2091,0,4-1.7909,4-4V38c0-2.2091-1.7909-4-4-4H12c-2.2091,0-4,1.7909-4,4v32 C8,72.2091,9.7909,74,12,74z"
     id="path8"
     style="stroke:#333330;stroke-opacity:1;fill:#ffffff;fill-opacity:1;stroke-width:4;stroke-miterlimit:10;stroke-dasharray:none" />
  <path
     d="M16.9492,66l7.8848-12.0337L17.6123,42h5.8115l3.9424,7.6486c0.3623,0.7252,0.6113,1.2668,0.7471,1.6236 h0.0508c0.2617-0.58,0.5332-1.1436,0.8164-1.69L33.1943,42h5.335l-7.4082,11.9L38.7168,66H33.041l-4.5537-8.4017 c-0.1924-0.3116-0.374-0.6858-0.5439-1.1215H27.876c-0.0791,0.2684-0.2549,0.631-0.5264,1.0878L22.6592,66H16.9492z"
     id="path10"
     style="fill:#333333;fill-opacity:1;stroke:none;stroke-opacity:1" />
</svg>
